<svg width="25" height="21" viewBox="0 0 25 21" fill="none" xmlns="http://www.w3.org/2000/svg">
<path fill-rule="evenodd" clip-rule="evenodd" d="M1.83301 10.5C1.83301 10.3342 1.91203 10.1753 2.05268 10.0581C2.19333 9.94084 2.3841 9.875 2.58301 9.875H20.2725L15.552 5.9425C15.4112 5.82514 15.3321 5.66597 15.3321 5.5C15.3321 5.33403 15.4112 5.17485 15.552 5.0575C15.6928 4.94014 15.8838 4.87421 16.083 4.87421C16.2822 4.87421 16.4732 4.94014 16.614 5.0575L22.614 10.0575C22.6839 10.1156 22.7393 10.1845 22.7771 10.2605C22.8149 10.3364 22.8343 10.4178 22.8343 10.5C22.8343 10.5822 22.8149 10.6636 22.7771 10.7395C22.7393 10.8155 22.6839 10.8844 22.614 10.9425L16.614 15.9425C16.4732 16.0599 16.2822 16.1258 16.083 16.1258C15.8838 16.1258 15.6928 16.0599 15.552 15.9425C15.4112 15.8251 15.3321 15.666 15.3321 15.5C15.3321 15.334 15.4112 15.1749 15.552 15.0575L20.2725 11.125H2.58301C2.3841 11.125 2.19333 11.0591 2.05268 10.9419C1.91203 10.8247 1.83301 10.6658 1.83301 10.5Z" fill="white"/>
</svg>
