<?xml version="1.0" encoding="UTF-8"?>
<svg id="Capa_2" data-name="Capa 2" xmlns="http://www.w3.org/2000/svg" viewBox="0 0 99.14 99.25">
  <defs>
    <style>
      .cls-1 {
        fill: #fff;
      }

      .cls-2 {
        fill: none;
        stroke: #354a37;
        stroke-linecap: round;
        stroke-miterlimit: 10;
        stroke-width: 3px;
      }

      .cls-3 {
        fill: #1d1d1b;
        font-family: Fragile, Fragile;
        font-size: 7.3px;
      }

      .cls-4 {
        fill: #354a37;
      }

      .cls-5 {
        fill: #010101;
      }
    </style>
  </defs>
  <g id="Capa_1-2" data-name="Capa 1">
    <g>
      <g>
        <path class="cls-4" d="M20.79,40.47c.05,1.9,1.2,3.67,2.8,4.65,1.07.66,2.49.99,3.3,1.99.58.72.87,1.65.83,2.58l.23.1c.49-.67.43-1.99.16-2.75-1.01-2.85-5.52-2.49-6.47-6.12-.51-1.94.12-5.57,1.84-6.84,1.72-1.27,1.88,1.37,2.21,2.41.18.57.61,1.64.96,2.11.57.77,1.56.87,2.37,1.28,5.55,2.82,6.75,11.37,1.9,15.39-4.76,3.95-11.32.86-12.7-4.78-.82-3.33.02-7.62,2.57-10.01h0Z"/>
        <path class="cls-4" d="M36.7,24.52c.03,1.68.91,3.42,2.17,4.51,1.46,1.28,3.84,1.55,3.7,4.14h.28c.06-.05.18-1.18.17-1.37-.12-3.75-5.9-3.68-5.55-8.87.07-.99.43-2.43.94-3.29.64-1.07,2.34-2.48,3.14-.8.12,1.23.2,2.71.65,3.87.38.99,1.35,1.04,2.21,1.54,4.36,2.49,5.95,8.32,3.83,12.83-2.43,5.16-9.27,5.97-12.99,1.71-3.99-4.57-2.27-10.22,1.44-14.27h0Z"/>
        <path class="cls-4" d="M76.7,31c1.15-.03,1.83,1.86,2.19,2.76.32.78.73,2.53,1.12,3.11.31.45,1.41,1.18,1.9,1.75,3.93,4.58,3.6,13.76-2.81,15.83-9.46,3.06-14.43-10.25-6.95-16.65.7-.6,1.51-.9,2.16-1.4.47-.36.78-1.5.9-2.08.22-1.05-.02-3.27,1.47-3.31h0ZM78.24,45.45c-2.44,2.06-4.82-.66-4.57-3.27.04-.46.53-1.59.46-1.82-.2-.62-1.17.67-1.29.9-1.89,3.52,2.35,8.11,5.53,5.53.41-.33,1.53-1.61.49-1.83-.32-.07-.47.38-.62.5h0Z"/>
        <path class="cls-4" d="M61.7,18.95c.11.11.26.42.34.57.55,1.11,1.08,3.71,1.72,4.52.27.34,1.41.89,1.96,1.5,3.94,4.39,3.64,13-2.84,14.85-8.97,2.56-13.1-8.49-7.64-14.85.91-1.06,1.98-1.62,3.17-2.31.51-1.32.42-3.01,1.49-4.08.51-.52,1.2-.79,1.8-.21h0ZM60.84,29.61c-1.61.2-3,1.63-2.97,3.29,0,.42.25,1.34.8,1.19.38-.1.24-.79.3-1.14.42-2.16,3.14-2.93,4.36-1.08.25.38.37,1.39.91,1.27.74-.17.22-1.59-.05-2.03-.69-1.16-2.06-1.65-3.37-1.48h0Z"/>
        <path class="cls-4" d="M62.93,49.17c1.96,1.95,3.66,4.13,5.71,6.07,3.37,3.2,6.33,4.91,7.64,9.75,1.67,6.14-.38,12.4-5.65,15.97-6.82,4.63-12.56.06-19.63.36-4.64.2-8.86,2.63-13.57,1.38-7.5-2-11.58-9.45-9.99-16.96,1.16-5.45,4.89-7.58,8.57-11.13,2.83-2.72,5.2-6.33,8.63-8.28,6.24-3.55,13.33-2.08,18.29,2.84h0Z"/>
        <g>
          <path class="cls-5" d="M44.39,61.22c-.83.94-2.04.94-2.34-.41-.19-.87.03-1.64-.01-2.51-.21-.03-.32,0-.35.22-.12.73-.21,2.24-.03,2.95.36,1.39,2.1,1.18,2.86.24.14-.17.48-.77.44-.97-.08-.42-.53.44-.57.49Z"/>
          <path class="cls-1" d="M65.9,65.29c-1.97-.18-3.77-2.13-5.66-2.75-4.23-1.38-10.48,1.4-13.68-2.52-1.75-2.15-.93-4.47-4.74-4.21-2.4.17-1.87,1.78-3.37,2.56-.94.49-2.1.45-1.08,1.9.71,1.01,1.4.84,2.42.95,1.76.18,1.1,2.43,1.14,3.67.09,2.85,1.88,3.34,2.57,5.53.31.98.61,4.18-.13,4.92-.3.3-.89.15-1.28.67-.12.16-.39.7-.09.79h2.3c1.73-2.2,1.5-5.24,2.83-7.61.19-.04.13.09.13.22,0,.28-.06.51-.18.75.96,0,1.92.04,2.87-.1,2.1-.3,3.98-1.47,6.07-1.76l-.17-.57.31-.15c.14-.03.12.05.15.12.64,1.02,1.09,1.76,2.01,2.59,1.12,1.01,3.43,2.15,4.15,3.29.37.59.54,1.18.45,1.88-.82-.18-1.76,1.23-.66,1.34.77.07,2.06.16,2.18-.84.06-.56-.26-3.65-.53-4.05-.1-.14-.61-.49-.8-.73-1.02-1.24-.74-2.04-.89-3.45-.08-.79-.21-1.57-.35-2.35,1.9,1.98,5.21,2.16,6.73-.35-.91.09-1.77.35-2.7.26h0ZM44.52,61.71c-.76.94-2.5,1.16-2.86-.24-.19-.71-.1-2.22.03-2.95.04-.22.14-.25.35-.22.04.87-.18,1.64.01,2.51.3,1.35,1.51,1.35,2.34.41.04-.05.49-.9.57-.49.04.2-.3.8-.44.97Z"/>
          <path class="cls-1" d="M55.53,76.84c-.21-.5.33-1.15.79-1.29.2-.06.4,0,.56-.06.32-.09.85-1.54.85-1.9,0-.82-.97-1.35-1.45-1.89-.4-.45-1.29-1.85-1.2-2.43.03-.2,1.04-.67,1.2-.67.22,0,.47.68.62.88.59.81,1.86,1.71,2.29,2.4.65,1.05-.17,3.19-.82,4.13-.12.18-.58.82-.77.82h-2.08,0Z"/>
        </g>
      </g>
      <text class="cls-3" transform="translate(6.72 57.1) rotate(-95.58)"><tspan x="0" y="0">L</tspan></text>
      <text class="cls-3" transform="translate(6.25 53.1) rotate(-89.07)"><tspan x="0" y="0">A</tspan></text>
      <text class="cls-3" transform="translate(6.39 47.34) rotate(-84.34)"><tspan x="0" y="0"> </tspan></text>
      <text class="cls-3" transform="translate(6.55 45.08) rotate(-79.51)"><tspan x="0" y="0">H</tspan></text>
      <text class="cls-3" transform="translate(7.46 40.02) rotate(-72.81)"><tspan x="0" y="0">U</tspan></text>
      <text class="cls-3" transform="translate(9.03 35.01) rotate(-66.68)"><tspan x="0" y="0">E</tspan></text>
      <text class="cls-3" transform="translate(10.7 31.12) rotate(-61.31)"><tspan x="0" y="0">L</tspan></text>
      <text class="cls-3" transform="translate(12.65 27.52) rotate(-56.04)"><tspan x="0" y="0">L</tspan></text>
      <text class="cls-3" transform="translate(14.86 24.14) rotate(-49.83)"><tspan x="0" y="0">A</tspan></text>
      <text class="cls-3" transform="translate(18.6 19.8) rotate(-44.74)"><tspan x="0" y="0"> </tspan></text>
      <text class="cls-3" transform="translate(20.18 18.15) rotate(-39.96)"><tspan x="0" y="0">D</tspan></text>
      <text class="cls-3" transform="translate(24.1 14.87) rotate(-34)"><tspan x="0" y="0">E</tspan></text>
      <text class="cls-3" transform="translate(27.67 12.5) rotate(-29.77)"><tspan x="0" y="0"> </tspan></text>
      <text class="cls-3" transform="translate(29.61 11.32) rotate(-25.16)"><tspan x="0" y="0">P</tspan></text>
      <text class="cls-3" transform="translate(33.96 9.24) rotate(-18.65)"><tspan x="0" y="0">U</tspan></text>
      <text class="cls-3" transform="translate(38.89 7.57) rotate(-12.01)"><tspan x="0" y="0">R</tspan></text>
      <text class="cls-3" transform="translate(43.94 6.55) rotate(-7.47)"><tspan x="0" y="0">I</tspan></text>
      <path class="cls-2" d="M50.45,3.37c26.06,0,47.19,21.13,47.19,47.19s-21.13,47.19-47.19,47.19c-21.95,0-40.4-14.99-45.68-35.29"/>
    </g>
  </g>
</svg>